<svg width="495" height="512" viewBox="0 0 495 512" color="white" xmlns="http://www.w3.org/2000/svg">
<g id="Group 1">
<g id="Subtract">
<path d="M136 512H3.05176e-05C3.31608e-05 451.531 16.0143 393.538 44.5198 350.78C69.2286 313.716 101.568 290.731 136 285.266L136 512Z" fill="currentColor"/>
<path d="M152 0L152 512H495C495 506.657 494.944 501.324 494.833 496C492.189 369.64 458.302 249.112 399.647 157.751C397.964 155.13 396.261 152.534 394.538 149.961C333.994 59.587 253.147 6.4873 168 0.55679C162.682 0.1864 157.348 2.33747e-07 152 0Z" fill="currentColor"/>
<path d="M412.571 148.268C411.008 145.845 409.428 143.44 407.83 141.056C361.887 72.4755 303.827 23.6001 240.028 3.84781e-06L495 6.87891e-07C495 54.5636 465.577 107.111 412.571 148.268Z" fill="currentColor"/>
</g>
<circle id="Ellipse 7" r="64" transform="matrix(-1 0 0 1 67 114)" fill="currentColor"/>
</g>
</svg>
