<svg xmlns="http://www.w3.org/2000/svg" fill="none" viewBox="0 0 256 256">
    <path fill-rule="evenodd" clip-rule="evenodd" d="M224.257 79.0165C230.689 94.5462 234 111.191 234 128C217.191 128 200.546 131.311 185.017 137.743C169.487 144.176 155.376 153.604 143.49 165.49C131.604 177.376 122.176 191.487 115.743 207.017C109.311 222.546 106 239.191 106 256V163.132C105.236 154.508 103.162 146.036 99.8377 138.011C95.5493 127.658 89.2637 118.251 81.3398 110.327C73.4158 102.403 64.0088 96.1174 53.6557 91.829C43.3025 87.5406 32.2061 85.3333 21 85.3333C21 74.1272 23.2072 63.0308 27.4956 52.6777C31.784 42.3246 38.0696 32.9175 45.9935 24.9936C53.9175 17.0696 63.3246 10.784 73.6777 6.49561C83.9281 2.24973 94.9072 0.0439762 106 0.000650908L106.184 0.000131509L106.333 0C123.029 0.0434726 139.556 3.35334 154.983 9.74342C170.513 16.176 184.624 25.6044 196.51 37.4903C208.396 49.3762 217.824 63.4868 224.257 79.0165ZM106 85C123.673 85 138 70.6731 138 53C138 35.3269 123.673 21 106 21C88.3269 21 74 35.3269 74 53C74 70.6731 88.3269 85 106 85Z"/>
    <style>
        path { fill: #000; }
        @media (prefers-color-scheme: dark) {
            path { fill: #FFF; }
        }
    </style>
</svg>